{
  "header": {
    "keySignatures": [],
    "meta": [],
    "name": "Circe - ARP\u0000",
    "ppq": 96,
    "tempos": [],
    "timeSignatures": [
      {
        "ticks": 0,
        "timeSignature": [
          4,
          4
        ],
        "measures": 0
      },
      {
        "ticks": 0,
        "timeSignature": [
          4,
          4
        ],
        "measures": 0
      }
    ]
  },
  "tracks": [
    {
      "channel": 0,
      "controlChanges": {},
      "pitchBends": [],
      "instrument": {
        "family": "piano",
        "name": "acoustic grand piano",
        "number": 0
      },
      "name": "Circe - ARP\u0000",
      "notes": [
        {
          "duration": 0.11979166666666667,
          "durationTicks": 23,
          "midi": 66,
          "name": "F#4",
          "ticks": 0,
          "time": 0,
          "velocity": 0.49606299212598426
        },
        {
          "duration": 0.11979166666666666,
          "durationTicks": 23,
          "midi": 42,
          "name": "F#2",
          "ticks": 24,
          "time": 0.125,
          "velocity": 0.49606299212598426
        },
        {
          "duration": 0.11979166666666669,
          "durationTicks": 23,
          "midi": 73,
          "name": "C#5",
          "ticks": 48,
          "time": 0.25,
          "velocity": 0.49606299212598426
        },
        {
          "duration": 0.11979166666666669,
          "durationTicks": 23,
          "midi": 66,
          "name": "F#4",
          "ticks": 72,
          "time": 0.375,
          "velocity": 0.49606299212598426
        },
        {
          "duration": 0.11979166666666663,
          "durationTicks": 23,
          "midi": 42,
          "name": "F#2",
          "ticks": 96,
          "time": 0.5,
          "velocity": 0.49606299212598426
        },
        {
          "duration": 0.11979166666666663,
          "durationTicks": 23,
          "midi": 78,
          "name": "F#5",
          "ticks": 120,
          "time": 0.625,
          "velocity": 0.49606299212598426
        },
        {
          "duration": 0.11979166666666663,
          "durationTicks": 23,
          "midi": 68,
          "name": "G#4",
          "ticks": 144,
          "time": 0.75,
          "velocity": 0.49606299212598426
        },
        {
          "duration": 0.11979166666666663,
          "durationTicks": 23,
          "midi": 52,
          "name": "E3",
          "ticks": 168,
          "time": 0.875,
          "velocity": 0.49606299212598426
        },
        {
          "duration": 0.11979166666666674,
          "durationTicks": 23,
          "midi": 73,
          "name": "C#5",
          "ticks": 192,
          "time": 1,
          "velocity": 0.49606299212598426
        },
        {
          "duration": 0.11979166666666674,
          "durationTicks": 23,
          "midi": 68,
          "name": "G#4",
          "ticks": 216,
          "time": 1.125,
          "velocity": 0.49606299212598426
        },
        {
          "duration": 0.11979166666666674,
          "durationTicks": 23,
          "midi": 52,
          "name": "E3",
          "ticks": 240,
          "time": 1.25,
          "velocity": 0.49606299212598426
        },
        {
          "duration": 0.11979166666666674,
          "durationTicks": 23,
          "midi": 80,
          "name": "G#5",
          "ticks": 264,
          "time": 1.375,
          "velocity": 0.49606299212598426
        },
        {
          "duration": 0.11979166666666674,
          "durationTicks": 23,
          "midi": 68,
          "name": "G#4",
          "ticks": 288,
          "time": 1.5,
          "velocity": 0.49606299212598426
        },
        {
          "duration": 0.11979166666666674,
          "durationTicks": 23,
          "midi": 52,
          "name": "E3",
          "ticks": 312,
          "time": 1.625,
          "velocity": 0.49606299212598426
        },
        {
          "duration": 0.11979166666666674,
          "durationTicks": 23,
          "midi": 73,
          "name": "C#5",
          "ticks": 336,
          "time": 1.75,
          "velocity": 0.49606299212598426
        },
        {
          "duration": 0.11979166666666674,
          "durationTicks": 23,
          "midi": 68,
          "name": "G#4",
          "ticks": 360,
          "time": 1.875,
          "velocity": 0.49606299212598426
        },
        {
          "duration": 0.11979166666666652,
          "durationTicks": 23,
          "midi": 52,
          "name": "E3",
          "ticks": 384,
          "time": 2,
          "velocity": 0.49606299212598426
        },
        {
          "duration": 0.11979166666666652,
          "durationTicks": 23,
          "midi": 80,
          "name": "G#5",
          "ticks": 408,
          "time": 2.125,
          "velocity": 0.49606299212598426
        },
        {
          "duration": 0.11979166666666652,
          "durationTicks": 23,
          "midi": 68,
          "name": "G#4",
          "ticks": 432,
          "time": 2.25,
          "velocity": 0.49606299212598426
        },
        {
          "duration": 0.11979166666666652,
          "durationTicks": 23,
          "midi": 52,
          "name": "E3",
          "ticks": 456,
          "time": 2.375,
          "velocity": 0.49606299212598426
        },
        {
          "duration": 0.11979166666666652,
          "durationTicks": 23,
          "midi": 73,
          "name": "C#5",
          "ticks": 480,
          "time": 2.5,
          "velocity": 0.49606299212598426
        },
        {
          "duration": 0.11979166666666652,
          "durationTicks": 23,
          "midi": 68,
          "name": "G#4",
          "ticks": 504,
          "time": 2.625,
          "velocity": 0.49606299212598426
        },
        {
          "duration": 0.11979166666666652,
          "durationTicks": 23,
          "midi": 52,
          "name": "E3",
          "ticks": 528,
          "time": 2.75,
          "velocity": 0.49606299212598426
        },
        {
          "duration": 0.11979166666666652,
          "durationTicks": 23,
          "midi": 80,
          "name": "G#5",
          "ticks": 552,
          "time": 2.875,
          "velocity": 0.49606299212598426
        },
        {
          "duration": 0.11979166666666652,
          "durationTicks": 23,
          "midi": 68,
          "name": "G#4",
          "ticks": 576,
          "time": 3,
          "velocity": 0.49606299212598426
        },
        {
          "duration": 0.11979166666666652,
          "durationTicks": 23,
          "midi": 52,
          "name": "E3",
          "ticks": 600,
          "time": 3.125,
          "velocity": 0.49606299212598426
        },
        {
          "duration": 0.11979166666666652,
          "durationTicks": 23,
          "midi": 73,
          "name": "C#5",
          "ticks": 624,
          "time": 3.25,
          "velocity": 0.49606299212598426
        },
        {
          "duration": 0.11979166666666652,
          "durationTicks": 23,
          "midi": 68,
          "name": "G#4",
          "ticks": 648,
          "time": 3.375,
          "velocity": 0.49606299212598426
        },
        {
          "duration": 0.11979166666666652,
          "durationTicks": 23,
          "midi": 52,
          "name": "E3",
          "ticks": 672,
          "time": 3.5,
          "velocity": 0.49606299212598426
        },
        {
          "duration": 0.11979166666666652,
          "durationTicks": 23,
          "midi": 80,
          "name": "G#5",
          "ticks": 696,
          "time": 3.625,
          "velocity": 0.49606299212598426
        },
        {
          "duration": 0.11979166666666652,
          "durationTicks": 23,
          "midi": 68,
          "name": "G#4",
          "ticks": 720,
          "time": 3.75,
          "velocity": 0.49606299212598426
        },
        {
          "duration": 0.11979166666666652,
          "durationTicks": 23,
          "midi": 52,
          "name": "E3",
          "ticks": 744,
          "time": 3.875,
          "velocity": 0.49606299212598426
        },
        {
          "duration": 0.11979166666666696,
          "durationTicks": 23,
          "midi": 64,
          "name": "E4",
          "ticks": 768,
          "time": 4,
          "velocity": 0.49606299212598426
        },
        {
          "duration": 0.11979166666666696,
          "durationTicks": 23,
          "midi": 61,
          "name": "C#4",
          "ticks": 792,
          "time": 4.125,
          "velocity": 0.49606299212598426
        },
        {
          "duration": 0.11979166666666696,
          "durationTicks": 23,
          "midi": 45,
          "name": "A2",
          "ticks": 816,
          "time": 4.25,
          "velocity": 0.49606299212598426
        },
        {
          "duration": 0.11979166666666696,
          "durationTicks": 23,
          "midi": 81,
          "name": "A5",
          "ticks": 840,
          "time": 4.375,
          "velocity": 0.49606299212598426
        },
        {
          "duration": 0.11979166666666696,
          "durationTicks": 23,
          "midi": 61,
          "name": "C#4",
          "ticks": 864,
          "time": 4.5,
          "velocity": 0.49606299212598426
        },
        {
          "duration": 0.11979166666666696,
          "durationTicks": 23,
          "midi": 45,
          "name": "A2",
          "ticks": 888,
          "time": 4.625,
          "velocity": 0.49606299212598426
        },
        {
          "duration": 0.11979166666666696,
          "durationTicks": 23,
          "midi": 66,
          "name": "F#4",
          "ticks": 912,
          "time": 4.75,
          "velocity": 0.49606299212598426
        },
        {
          "duration": 0.11979166666666696,
          "durationTicks": 23,
          "midi": 63,
          "name": "D#4",
          "ticks": 936,
          "time": 4.875,
          "velocity": 0.49606299212598426
        },
        {
          "duration": 0.11979166666666696,
          "durationTicks": 23,
          "midi": 47,
          "name": "B2",
          "ticks": 960,
          "time": 5,
          "velocity": 0.49606299212598426
        },
        {
          "duration": 0.11979166666666696,
          "durationTicks": 23,
          "midi": 78,
          "name": "F#5",
          "ticks": 984,
          "time": 5.125,
          "velocity": 0.49606299212598426
        },
        {
          "duration": 0.11979166666666696,
          "durationTicks": 23,
          "midi": 63,
          "name": "D#4",
          "ticks": 1008,
          "time": 5.25,
          "velocity": 0.49606299212598426
        },
        {
          "duration": 0.11979166666666696,
          "durationTicks": 23,
          "midi": 47,
          "name": "B2",
          "ticks": 1032,
          "time": 5.375,
          "velocity": 0.49606299212598426
        },
        {
          "duration": 0.11979166666666696,
          "durationTicks": 23,
          "midi": 66,
          "name": "F#4",
          "ticks": 1056,
          "time": 5.5,
          "velocity": 0.49606299212598426
        },
        {
          "duration": 0.11979166666666696,
          "durationTicks": 23,
          "midi": 63,
          "name": "D#4",
          "ticks": 1080,
          "time": 5.625,
          "velocity": 0.49606299212598426
        },
        {
          "duration": 0.11979166666666696,
          "durationTicks": 23,
          "midi": 47,
          "name": "B2",
          "ticks": 1104,
          "time": 5.75,
          "velocity": 0.49606299212598426
        },
        {
          "duration": 0.11979166666666696,
          "durationTicks": 23,
          "midi": 78,
          "name": "F#5",
          "ticks": 1128,
          "time": 5.875,
          "velocity": 0.49606299212598426
        },
        {
          "duration": 0.11979166666666696,
          "durationTicks": 23,
          "midi": 63,
          "name": "D#4",
          "ticks": 1152,
          "time": 6,
          "velocity": 0.49606299212598426
        },
        {
          "duration": 0.11979166666666696,
          "durationTicks": 23,
          "midi": 47,
          "name": "B2",
          "ticks": 1176,
          "time": 6.125,
          "velocity": 0.49606299212598426
        },
        {
          "duration": 0.11979166666666696,
          "durationTicks": 23,
          "midi": 66,
          "name": "F#4",
          "ticks": 1200,
          "time": 6.25,
          "velocity": 0.49606299212598426
        },
        {
          "duration": 0.11979166666666696,
          "durationTicks": 23,
          "midi": 63,
          "name": "D#4",
          "ticks": 1224,
          "time": 6.375,
          "velocity": 0.49606299212598426
        },
        {
          "duration": 0.11979166666666696,
          "durationTicks": 23,
          "midi": 47,
          "name": "B2",
          "ticks": 1248,
          "time": 6.5,
          "velocity": 0.49606299212598426
        },
        {
          "duration": 0.11979166666666696,
          "durationTicks": 23,
          "midi": 78,
          "name": "F#5",
          "ticks": 1272,
          "time": 6.625,
          "velocity": 0.49606299212598426
        },
        {
          "duration": 0.11979166666666696,
          "durationTicks": 23,
          "midi": 63,
          "name": "D#4",
          "ticks": 1296,
          "time": 6.75,
          "velocity": 0.49606299212598426
        },
        {
          "duration": 0.11979166666666696,
          "durationTicks": 23,
          "midi": 47,
          "name": "B2",
          "ticks": 1320,
          "time": 6.875,
          "velocity": 0.49606299212598426
        },
        {
          "duration": 0.11979166666666696,
          "durationTicks": 23,
          "midi": 66,
          "name": "F#4",
          "ticks": 1344,
          "time": 7,
          "velocity": 0.49606299212598426
        },
        {
          "duration": 0.11979166666666696,
          "durationTicks": 23,
          "midi": 63,
          "name": "D#4",
          "ticks": 1368,
          "time": 7.125,
          "velocity": 0.49606299212598426
        },
        {
          "duration": 0.11979166666666696,
          "durationTicks": 23,
          "midi": 47,
          "name": "B2",
          "ticks": 1392,
          "time": 7.25,
          "velocity": 0.49606299212598426
        },
        {
          "duration": 0.11979166666666696,
          "durationTicks": 23,
          "midi": 78,
          "name": "F#5",
          "ticks": 1416,
          "time": 7.375,
          "velocity": 0.49606299212598426
        },
        {
          "duration": 0.11979166666666696,
          "durationTicks": 23,
          "midi": 58,
          "name": "A#3",
          "ticks": 1440,
          "time": 7.5,
          "velocity": 0.49606299212598426
        },
        {
          "duration": 0.11979166666666696,
          "durationTicks": 23,
          "midi": 42,
          "name": "F#2",
          "ticks": 1464,
          "time": 7.625,
          "velocity": 0.49606299212598426
        },
        {
          "duration": 0.11979166666666696,
          "durationTicks": 23,
          "midi": 66,
          "name": "F#4",
          "ticks": 1488,
          "time": 7.75,
          "velocity": 0.49606299212598426
        },
        {
          "duration": 0.11979166666666696,
          "durationTicks": 23,
          "midi": 58,
          "name": "A#3",
          "ticks": 1512,
          "time": 7.875,
          "velocity": 0.49606299212598426
        },
        {
          "duration": 0.11979166666666607,
          "durationTicks": 23,
          "midi": 42,
          "name": "F#2",
          "ticks": 1536,
          "time": 8,
          "velocity": 0.49606299212598426
        },
        {
          "duration": 0.11979166666666607,
          "durationTicks": 23,
          "midi": 78,
          "name": "F#5",
          "ticks": 1560,
          "time": 8.125,
          "velocity": 0.49606299212598426
        },
        {
          "duration": 0.11979166666666607,
          "durationTicks": 23,
          "midi": 66,
          "name": "F#4",
          "ticks": 1584,
          "time": 8.25,
          "velocity": 0.49606299212598426
        },
        {
          "duration": 0.11979166666666607,
          "durationTicks": 23,
          "midi": 42,
          "name": "F#2",
          "ticks": 1608,
          "time": 8.375,
          "velocity": 0.49606299212598426
        },
        {
          "duration": 0.11979166666666607,
          "durationTicks": 23,
          "midi": 73,
          "name": "C#5",
          "ticks": 1632,
          "time": 8.5,
          "velocity": 0.49606299212598426
        },
        {
          "duration": 0.11979166666666607,
          "durationTicks": 23,
          "midi": 66,
          "name": "F#4",
          "ticks": 1656,
          "time": 8.625,
          "velocity": 0.49606299212598426
        },
        {
          "duration": 0.11979166666666607,
          "durationTicks": 23,
          "midi": 52,
          "name": "E3",
          "ticks": 1680,
          "time": 8.75,
          "velocity": 0.49606299212598426
        },
        {
          "duration": 0.11979166666666607,
          "durationTicks": 23,
          "midi": 80,
          "name": "G#5",
          "ticks": 1704,
          "time": 8.875,
          "velocity": 0.49606299212598426
        },
        {
          "duration": 0.11979166666666607,
          "durationTicks": 23,
          "midi": 68,
          "name": "G#4",
          "ticks": 1728,
          "time": 9,
          "velocity": 0.49606299212598426
        },
        {
          "duration": 0.11979166666666607,
          "durationTicks": 23,
          "midi": 52,
          "name": "E3",
          "ticks": 1752,
          "time": 9.125,
          "velocity": 0.49606299212598426
        },
        {
          "duration": 0.11979166666666607,
          "durationTicks": 23,
          "midi": 73,
          "name": "C#5",
          "ticks": 1776,
          "time": 9.25,
          "velocity": 0.49606299212598426
        },
        {
          "duration": 0.11979166666666607,
          "durationTicks": 23,
          "midi": 68,
          "name": "G#4",
          "ticks": 1800,
          "time": 9.375,
          "velocity": 0.49606299212598426
        },
        {
          "duration": 0.11979166666666607,
          "durationTicks": 23,
          "midi": 52,
          "name": "E3",
          "ticks": 1824,
          "time": 9.5,
          "velocity": 0.49606299212598426
        },
        {
          "duration": 0.11979166666666607,
          "durationTicks": 23,
          "midi": 80,
          "name": "G#5",
          "ticks": 1848,
          "time": 9.625,
          "velocity": 0.49606299212598426
        },
        {
          "duration": 0.11979166666666607,
          "durationTicks": 23,
          "midi": 68,
          "name": "G#4",
          "ticks": 1872,
          "time": 9.75,
          "velocity": 0.49606299212598426
        },
        {
          "duration": 0.11979166666666607,
          "durationTicks": 23,
          "midi": 52,
          "name": "E3",
          "ticks": 1896,
          "time": 9.875,
          "velocity": 0.49606299212598426
        },
        {
          "duration": 0.11979166666666607,
          "durationTicks": 23,
          "midi": 73,
          "name": "C#5",
          "ticks": 1920,
          "time": 10,
          "velocity": 0.49606299212598426
        },
        {
          "duration": 0.11979166666666607,
          "durationTicks": 23,
          "midi": 68,
          "name": "G#4",
          "ticks": 1944,
          "time": 10.125,
          "velocity": 0.49606299212598426
        },
        {
          "duration": 0.11979166666666607,
          "durationTicks": 23,
          "midi": 52,
          "name": "E3",
          "ticks": 1968,
          "time": 10.25,
          "velocity": 0.49606299212598426
        },
        {
          "duration": 0.11979166666666607,
          "durationTicks": 23,
          "midi": 80,
          "name": "G#5",
          "ticks": 1992,
          "time": 10.375,
          "velocity": 0.49606299212598426
        },
        {
          "duration": 0.11979166666666607,
          "durationTicks": 23,
          "midi": 68,
          "name": "G#4",
          "ticks": 2016,
          "time": 10.5,
          "velocity": 0.49606299212598426
        },
        {
          "duration": 0.11979166666666607,
          "durationTicks": 23,
          "midi": 52,
          "name": "E3",
          "ticks": 2040,
          "time": 10.625,
          "velocity": 0.49606299212598426
        },
        {
          "duration": 0.11979166666666607,
          "durationTicks": 23,
          "midi": 73,
          "name": "C#5",
          "ticks": 2064,
          "time": 10.75,
          "velocity": 0.49606299212598426
        },
        {
          "duration": 0.11979166666666607,
          "durationTicks": 23,
          "midi": 68,
          "name": "G#4",
          "ticks": 2088,
          "time": 10.875,
          "velocity": 0.49606299212598426
        },
        {
          "duration": 0.11979166666666607,
          "durationTicks": 23,
          "midi": 52,
          "name": "E3",
          "ticks": 2112,
          "time": 11,
          "velocity": 0.49606299212598426
        },
        {
          "duration": 0.11979166666666607,
          "durationTicks": 23,
          "midi": 80,
          "name": "G#5",
          "ticks": 2136,
          "time": 11.125,
          "velocity": 0.49606299212598426
        },
        {
          "duration": 0.11979166666666607,
          "durationTicks": 23,
          "midi": 68,
          "name": "G#4",
          "ticks": 2160,
          "time": 11.25,
          "velocity": 0.49606299212598426
        },
        {
          "duration": 0.11979166666666607,
          "durationTicks": 23,
          "midi": 52,
          "name": "E3",
          "ticks": 2184,
          "time": 11.375,
          "velocity": 0.49606299212598426
        },
        {
          "duration": 0.11979166666666607,
          "durationTicks": 23,
          "midi": 73,
          "name": "C#5",
          "ticks": 2208,
          "time": 11.5,
          "velocity": 0.49606299212598426
        },
        {
          "duration": 0.11979166666666607,
          "durationTicks": 23,
          "midi": 68,
          "name": "G#4",
          "ticks": 2232,
          "time": 11.625,
          "velocity": 0.49606299212598426
        },
        {
          "duration": 0.11979166666666607,
          "durationTicks": 23,
          "midi": 52,
          "name": "E3",
          "ticks": 2256,
          "time": 11.75,
          "velocity": 0.49606299212598426
        },
        {
          "duration": 0.11979166666666607,
          "durationTicks": 23,
          "midi": 80,
          "name": "G#5",
          "ticks": 2280,
          "time": 11.875,
          "velocity": 0.49606299212598426
        },
        {
          "duration": 0.11979166666666607,
          "durationTicks": 23,
          "midi": 61,
          "name": "C#4",
          "ticks": 2304,
          "time": 12,
          "velocity": 0.49606299212598426
        },
        {
          "duration": 0.11979166666666607,
          "durationTicks": 23,
          "midi": 45,
          "name": "A2",
          "ticks": 2328,
          "time": 12.125,
          "velocity": 0.49606299212598426
        },
        {
          "duration": 0.11979166666666607,
          "durationTicks": 23,
          "midi": 64,
          "name": "E4",
          "ticks": 2352,
          "time": 12.25,
          "velocity": 0.49606299212598426
        },
        {
          "duration": 0.11979166666666607,
          "durationTicks": 23,
          "midi": 61,
          "name": "C#4",
          "ticks": 2376,
          "time": 12.375,
          "velocity": 0.49606299212598426
        },
        {
          "duration": 0.11979166666666607,
          "durationTicks": 23,
          "midi": 45,
          "name": "A2",
          "ticks": 2400,
          "time": 12.5,
          "velocity": 0.49606299212598426
        },
        {
          "duration": 0.11979166666666607,
          "durationTicks": 23,
          "midi": 76,
          "name": "E5",
          "ticks": 2424,
          "time": 12.625,
          "velocity": 0.49606299212598426
        },
        {
          "duration": 0.11979166666666607,
          "durationTicks": 23,
          "midi": 63,
          "name": "D#4",
          "ticks": 2448,
          "time": 12.75,
          "velocity": 0.49606299212598426
        },
        {
          "duration": 0.11979166666666607,
          "durationTicks": 23,
          "midi": 47,
          "name": "B2",
          "ticks": 2472,
          "time": 12.875,
          "velocity": 0.49606299212598426
        },
        {
          "duration": 0.11979166666666607,
          "durationTicks": 23,
          "midi": 66,
          "name": "F#4",
          "ticks": 2496,
          "time": 13,
          "velocity": 0.49606299212598426
        },
        {
          "duration": 0.11979166666666607,
          "durationTicks": 23,
          "midi": 63,
          "name": "D#4",
          "ticks": 2520,
          "time": 13.125,
          "velocity": 0.49606299212598426
        },
        {
          "duration": 0.11979166666666607,
          "durationTicks": 23,
          "midi": 47,
          "name": "B2",
          "ticks": 2544,
          "time": 13.25,
          "velocity": 0.49606299212598426
        },
        {
          "duration": 0.11979166666666607,
          "durationTicks": 23,
          "midi": 75,
          "name": "D#5",
          "ticks": 2568,
          "time": 13.375,
          "velocity": 0.49606299212598426
        },
        {
          "duration": 0.11979166666666607,
          "durationTicks": 23,
          "midi": 63,
          "name": "D#4",
          "ticks": 2592,
          "time": 13.5,
          "velocity": 0.49606299212598426
        },
        {
          "duration": 0.11979166666666607,
          "durationTicks": 23,
          "midi": 47,
          "name": "B2",
          "ticks": 2616,
          "time": 13.625,
          "velocity": 0.49606299212598426
        },
        {
          "duration": 0.11979166666666607,
          "durationTicks": 23,
          "midi": 66,
          "name": "F#4",
          "ticks": 2640,
          "time": 13.75,
          "velocity": 0.49606299212598426
        },
        {
          "duration": 0.11979166666666607,
          "durationTicks": 23,
          "midi": 63,
          "name": "D#4",
          "ticks": 2664,
          "time": 13.875,
          "velocity": 0.49606299212598426
        },
        {
          "duration": 0.11979166666666607,
          "durationTicks": 23,
          "midi": 47,
          "name": "B2",
          "ticks": 2688,
          "time": 14,
          "velocity": 0.49606299212598426
        },
        {
          "duration": 0.11979166666666607,
          "durationTicks": 23,
          "midi": 75,
          "name": "D#5",
          "ticks": 2712,
          "time": 14.125,
          "velocity": 0.49606299212598426
        },
        {
          "duration": 0.11979166666666607,
          "durationTicks": 23,
          "midi": 63,
          "name": "D#4",
          "ticks": 2736,
          "time": 14.25,
          "velocity": 0.49606299212598426
        },
        {
          "duration": 0.11979166666666607,
          "durationTicks": 23,
          "midi": 47,
          "name": "B2",
          "ticks": 2760,
          "time": 14.375,
          "velocity": 0.49606299212598426
        },
        {
          "duration": 0.11979166666666607,
          "durationTicks": 23,
          "midi": 66,
          "name": "F#4",
          "ticks": 2784,
          "time": 14.5,
          "velocity": 0.49606299212598426
        },
        {
          "duration": 0.11979166666666607,
          "durationTicks": 23,
          "midi": 63,
          "name": "D#4",
          "ticks": 2808,
          "time": 14.625,
          "velocity": 0.49606299212598426
        },
        {
          "duration": 0.11979166666666607,
          "durationTicks": 23,
          "midi": 47,
          "name": "B2",
          "ticks": 2832,
          "time": 14.75,
          "velocity": 0.49606299212598426
        },
        {
          "duration": 0.11979166666666607,
          "durationTicks": 23,
          "midi": 75,
          "name": "D#5",
          "ticks": 2856,
          "time": 14.875,
          "velocity": 0.49606299212598426
        },
        {
          "duration": 0.11979166666666607,
          "durationTicks": 23,
          "midi": 63,
          "name": "D#4",
          "ticks": 2880,
          "time": 15,
          "velocity": 0.49606299212598426
        },
        {
          "duration": 0.11979166666666607,
          "durationTicks": 23,
          "midi": 47,
          "name": "B2",
          "ticks": 2904,
          "time": 15.125,
          "velocity": 0.49606299212598426
        },
        {
          "duration": 0.11979166666666607,
          "durationTicks": 23,
          "midi": 66,
          "name": "F#4",
          "ticks": 2928,
          "time": 15.25,
          "velocity": 0.49606299212598426
        },
        {
          "duration": 0.11979166666666607,
          "durationTicks": 23,
          "midi": 63,
          "name": "D#4",
          "ticks": 2952,
          "time": 15.375,
          "velocity": 0.49606299212598426
        },
        {
          "duration": 0.11979166666666607,
          "durationTicks": 23,
          "midi": 42,
          "name": "F#2",
          "ticks": 2976,
          "time": 15.5,
          "velocity": 0.49606299212598426
        },
        {
          "duration": 0.11979166666666607,
          "durationTicks": 23,
          "midi": 73,
          "name": "C#5",
          "ticks": 3000,
          "time": 15.625,
          "velocity": 0.49606299212598426
        },
        {
          "duration": 0.11979166666666607,
          "durationTicks": 23,
          "midi": 58,
          "name": "A#3",
          "ticks": 3024,
          "time": 15.75,
          "velocity": 0.49606299212598426
        },
        {
          "duration": 0.11979166666666607,
          "durationTicks": 23,
          "midi": 42,
          "name": "F#2",
          "ticks": 3048,
          "time": 15.875,
          "velocity": 0.49606299212598426
        }
      ],
      "endOfTrackTicks": 3071
    }
  ]
}