{
  "header": {
    "keySignatures": [],
    "meta": [],
    "name": "Tityos - ARP\u0000",
    "ppq": 96,
    "tempos": [],
    "timeSignatures": [
      {
        "ticks": 0,
        "timeSignature": [
          4,
          4
        ],
        "measures": 0
      },
      {
        "ticks": 0,
        "timeSignature": [
          4,
          4
        ],
        "measures": 0
      }
    ]
  },
  "tracks": [
    {
      "channel": 0,
      "controlChanges": {},
      "pitchBends": [],
      "instrument": {
        "family": "piano",
        "name": "acoustic grand piano",
        "number": 0
      },
      "name": "Tityos - ARP\u0000",
      "notes": [
        {
          "duration": 0.11979166666666667,
          "durationTicks": 23,
          "midi": 46,
          "name": "A#2",
          "ticks": 0,
          "time": 0,
          "velocity": 0.49606299212598426
        },
        {
          "duration": 0.11979166666666666,
          "durationTicks": 23,
          "midi": 22,
          "name": "A#0",
          "ticks": 24,
          "time": 0.125,
          "velocity": 0.49606299212598426
        },
        {
          "duration": 0.11979166666666669,
          "durationTicks": 23,
          "midi": 34,
          "name": "A#1",
          "ticks": 48,
          "time": 0.25,
          "velocity": 0.49606299212598426
        },
        {
          "duration": 0.11979166666666669,
          "durationTicks": 23,
          "midi": 48,
          "name": "C3",
          "ticks": 72,
          "time": 0.375,
          "velocity": 0.49606299212598426
        },
        {
          "duration": 0.11979166666666663,
          "durationTicks": 23,
          "midi": 29,
          "name": "F1",
          "ticks": 96,
          "time": 0.5,
          "velocity": 0.49606299212598426
        },
        {
          "duration": 0.11979166666666663,
          "durationTicks": 23,
          "midi": 60,
          "name": "C4",
          "ticks": 120,
          "time": 0.625,
          "velocity": 0.49606299212598426
        },
        {
          "duration": 0.11979166666666663,
          "durationTicks": 23,
          "midi": 49,
          "name": "C#3",
          "ticks": 144,
          "time": 0.75,
          "velocity": 0.49606299212598426
        },
        {
          "duration": 0.11979166666666663,
          "durationTicks": 23,
          "midi": 30,
          "name": "F#1",
          "ticks": 168,
          "time": 0.875,
          "velocity": 0.49606299212598426
        },
        {
          "duration": 0.11979166666666674,
          "durationTicks": 23,
          "midi": 42,
          "name": "F#2",
          "ticks": 192,
          "time": 1,
          "velocity": 0.49606299212598426
        },
        {
          "duration": 0.11979166666666674,
          "durationTicks": 23,
          "midi": 49,
          "name": "C#3",
          "ticks": 216,
          "time": 1.125,
          "velocity": 0.49606299212598426
        },
        {
          "duration": 0.11979166666666674,
          "durationTicks": 23,
          "midi": 30,
          "name": "F#1",
          "ticks": 240,
          "time": 1.25,
          "velocity": 0.49606299212598426
        },
        {
          "duration": 0.11979166666666674,
          "durationTicks": 23,
          "midi": 61,
          "name": "C#4",
          "ticks": 264,
          "time": 1.375,
          "velocity": 0.49606299212598426
        },
        {
          "duration": 0.11979166666666674,
          "durationTicks": 23,
          "midi": 49,
          "name": "C#3",
          "ticks": 288,
          "time": 1.5,
          "velocity": 0.49606299212598426
        },
        {
          "duration": 0.11979166666666674,
          "durationTicks": 23,
          "midi": 30,
          "name": "F#1",
          "ticks": 312,
          "time": 1.625,
          "velocity": 0.49606299212598426
        },
        {
          "duration": 0.11979166666666674,
          "durationTicks": 23,
          "midi": 42,
          "name": "F#2",
          "ticks": 336,
          "time": 1.75,
          "velocity": 0.49606299212598426
        },
        {
          "duration": 0.11979166666666674,
          "durationTicks": 23,
          "midi": 49,
          "name": "C#3",
          "ticks": 360,
          "time": 1.875,
          "velocity": 0.49606299212598426
        },
        {
          "duration": 0.11979166666666652,
          "durationTicks": 23,
          "midi": 30,
          "name": "F#1",
          "ticks": 384,
          "time": 2,
          "velocity": 0.49606299212598426
        },
        {
          "duration": 0.11979166666666652,
          "durationTicks": 23,
          "midi": 61,
          "name": "C#4",
          "ticks": 408,
          "time": 2.125,
          "velocity": 0.49606299212598426
        },
        {
          "duration": 0.11979166666666652,
          "durationTicks": 23,
          "midi": 49,
          "name": "C#3",
          "ticks": 432,
          "time": 2.25,
          "velocity": 0.49606299212598426
        },
        {
          "duration": 0.11979166666666652,
          "durationTicks": 23,
          "midi": 32,
          "name": "G#1",
          "ticks": 456,
          "time": 2.375,
          "velocity": 0.49606299212598426
        },
        {
          "duration": 0.11979166666666652,
          "durationTicks": 23,
          "midi": 44,
          "name": "G#2",
          "ticks": 480,
          "time": 2.5,
          "velocity": 0.49606299212598426
        },
        {
          "duration": 0.11979166666666652,
          "durationTicks": 23,
          "midi": 51,
          "name": "D#3",
          "ticks": 504,
          "time": 2.625,
          "velocity": 0.49606299212598426
        },
        {
          "duration": 0.11979166666666652,
          "durationTicks": 23,
          "midi": 34,
          "name": "A#1",
          "ticks": 528,
          "time": 2.75,
          "velocity": 0.49606299212598426
        },
        {
          "duration": 0.11979166666666652,
          "durationTicks": 23,
          "midi": 65,
          "name": "F4",
          "ticks": 552,
          "time": 2.875,
          "velocity": 0.49606299212598426
        },
        {
          "duration": 0.11979166666666652,
          "durationTicks": 23,
          "midi": 53,
          "name": "F3",
          "ticks": 576,
          "time": 3,
          "velocity": 0.49606299212598426
        },
        {
          "duration": 0.11979166666666652,
          "durationTicks": 23,
          "midi": 34,
          "name": "A#1",
          "ticks": 600,
          "time": 3.125,
          "velocity": 0.49606299212598426
        },
        {
          "duration": 0.11979166666666652,
          "durationTicks": 23,
          "midi": 46,
          "name": "A#2",
          "ticks": 624,
          "time": 3.25,
          "velocity": 0.49606299212598426
        },
        {
          "duration": 0.11979166666666652,
          "durationTicks": 23,
          "midi": 53,
          "name": "F3",
          "ticks": 648,
          "time": 3.375,
          "velocity": 0.49606299212598426
        },
        {
          "duration": 0.11979166666666652,
          "durationTicks": 23,
          "midi": 25,
          "name": "C#1",
          "ticks": 672,
          "time": 3.5,
          "velocity": 0.49606299212598426
        },
        {
          "duration": 0.11979166666666652,
          "durationTicks": 23,
          "midi": 68,
          "name": "G#4",
          "ticks": 696,
          "time": 3.625,
          "velocity": 0.49606299212598426
        },
        {
          "duration": 0.11979166666666652,
          "durationTicks": 23,
          "midi": 56,
          "name": "G#3",
          "ticks": 720,
          "time": 3.75,
          "velocity": 0.49606299212598426
        },
        {
          "duration": 0.11979166666666652,
          "durationTicks": 23,
          "midi": 25,
          "name": "C#1",
          "ticks": 744,
          "time": 3.875,
          "velocity": 0.49606299212598426
        },
        {
          "duration": 0.11979166666666696,
          "durationTicks": 23,
          "midi": 42,
          "name": "F#2",
          "ticks": 768,
          "time": 4,
          "velocity": 0.49606299212598426
        },
        {
          "duration": 0.11979166666666696,
          "durationTicks": 23,
          "midi": 61,
          "name": "C#4",
          "ticks": 792,
          "time": 4.125,
          "velocity": 0.49606299212598426
        },
        {
          "duration": 0.11979166666666696,
          "durationTicks": 23,
          "midi": 30,
          "name": "F#1",
          "ticks": 816,
          "time": 4.25,
          "velocity": 0.49606299212598426
        },
        {
          "duration": 0.11979166666666696,
          "durationTicks": 23,
          "midi": 73,
          "name": "C#5",
          "ticks": 840,
          "time": 4.375,
          "velocity": 0.49606299212598426
        },
        {
          "duration": 0.11979166666666696,
          "durationTicks": 23,
          "midi": 61,
          "name": "C#4",
          "ticks": 864,
          "time": 4.5,
          "velocity": 0.49606299212598426
        },
        {
          "duration": 0.11979166666666696,
          "durationTicks": 23,
          "midi": 30,
          "name": "F#1",
          "ticks": 888,
          "time": 4.625,
          "velocity": 0.49606299212598426
        },
        {
          "duration": 0.11979166666666696,
          "durationTicks": 23,
          "midi": 46,
          "name": "A#2",
          "ticks": 912,
          "time": 4.75,
          "velocity": 0.49606299212598426
        },
        {
          "duration": 0.11979166666666696,
          "durationTicks": 23,
          "midi": 61,
          "name": "C#4",
          "ticks": 936,
          "time": 4.875,
          "velocity": 0.49606299212598426
        },
        {
          "duration": 0.11979166666666696,
          "durationTicks": 23,
          "midi": 34,
          "name": "A#1",
          "ticks": 960,
          "time": 5,
          "velocity": 0.49606299212598426
        },
        {
          "duration": 0.11979166666666696,
          "durationTicks": 23,
          "midi": 73,
          "name": "C#5",
          "ticks": 984,
          "time": 5.125,
          "velocity": 0.49606299212598426
        },
        {
          "duration": 0.11979166666666696,
          "durationTicks": 23,
          "midi": 61,
          "name": "C#4",
          "ticks": 1008,
          "time": 5.25,
          "velocity": 0.49606299212598426
        },
        {
          "duration": 0.11979166666666696,
          "durationTicks": 23,
          "midi": 34,
          "name": "A#1",
          "ticks": 1032,
          "time": 5.375,
          "velocity": 0.49606299212598426
        },
        {
          "duration": 0.11979166666666696,
          "durationTicks": 23,
          "midi": 46,
          "name": "A#2",
          "ticks": 1056,
          "time": 5.5,
          "velocity": 0.49606299212598426
        },
        {
          "duration": 0.11979166666666696,
          "durationTicks": 23,
          "midi": 61,
          "name": "C#4",
          "ticks": 1080,
          "time": 5.625,
          "velocity": 0.49606299212598426
        },
        {
          "duration": 0.11979166666666696,
          "durationTicks": 23,
          "midi": 34,
          "name": "A#1",
          "ticks": 1104,
          "time": 5.75,
          "velocity": 0.49606299212598426
        },
        {
          "duration": 0.11979166666666696,
          "durationTicks": 23,
          "midi": 73,
          "name": "C#5",
          "ticks": 1128,
          "time": 5.875,
          "velocity": 0.49606299212598426
        },
        {
          "duration": 0.11979166666666696,
          "durationTicks": 23,
          "midi": 61,
          "name": "C#4",
          "ticks": 1152,
          "time": 6,
          "velocity": 0.49606299212598426
        },
        {
          "duration": 0.11979166666666696,
          "durationTicks": 23,
          "midi": 34,
          "name": "A#1",
          "ticks": 1176,
          "time": 6.125,
          "velocity": 0.49606299212598426
        },
        {
          "duration": 0.11979166666666696,
          "durationTicks": 23,
          "midi": 46,
          "name": "A#2",
          "ticks": 1200,
          "time": 6.25,
          "velocity": 0.49606299212598426
        },
        {
          "duration": 0.11979166666666696,
          "durationTicks": 23,
          "midi": 61,
          "name": "C#4",
          "ticks": 1224,
          "time": 6.375,
          "velocity": 0.49606299212598426
        },
        {
          "duration": 0.11979166666666696,
          "durationTicks": 23,
          "midi": 34,
          "name": "A#1",
          "ticks": 1248,
          "time": 6.5,
          "velocity": 0.49606299212598426
        },
        {
          "duration": 0.11979166666666696,
          "durationTicks": 23,
          "midi": 73,
          "name": "C#5",
          "ticks": 1272,
          "time": 6.625,
          "velocity": 0.49606299212598426
        },
        {
          "duration": 0.11979166666666696,
          "durationTicks": 23,
          "midi": 61,
          "name": "C#4",
          "ticks": 1296,
          "time": 6.75,
          "velocity": 0.49606299212598426
        },
        {
          "duration": 0.11979166666666696,
          "durationTicks": 23,
          "midi": 34,
          "name": "A#1",
          "ticks": 1320,
          "time": 6.875,
          "velocity": 0.49606299212598426
        },
        {
          "duration": 0.11979166666666696,
          "durationTicks": 23,
          "midi": 46,
          "name": "A#2",
          "ticks": 1344,
          "time": 7,
          "velocity": 0.49606299212598426
        },
        {
          "duration": 0.11979166666666696,
          "durationTicks": 23,
          "midi": 61,
          "name": "C#4",
          "ticks": 1368,
          "time": 7.125,
          "velocity": 0.49606299212598426
        },
        {
          "duration": 0.11979166666666696,
          "durationTicks": 23,
          "midi": 34,
          "name": "A#1",
          "ticks": 1392,
          "time": 7.25,
          "velocity": 0.49606299212598426
        },
        {
          "duration": 0.11979166666666696,
          "durationTicks": 23,
          "midi": 73,
          "name": "C#5",
          "ticks": 1416,
          "time": 7.375,
          "velocity": 0.49606299212598426
        },
        {
          "duration": 0.11979166666666696,
          "durationTicks": 23,
          "midi": 61,
          "name": "C#4",
          "ticks": 1440,
          "time": 7.5,
          "velocity": 0.49606299212598426
        },
        {
          "duration": 0.11979166666666696,
          "durationTicks": 23,
          "midi": 32,
          "name": "G#1",
          "ticks": 1464,
          "time": 7.625,
          "velocity": 0.49606299212598426
        },
        {
          "duration": 0.11979166666666696,
          "durationTicks": 23,
          "midi": 44,
          "name": "G#2",
          "ticks": 1488,
          "time": 7.75,
          "velocity": 0.49606299212598426
        },
        {
          "duration": 0.11979166666666696,
          "durationTicks": 23,
          "midi": 60,
          "name": "C4",
          "ticks": 1512,
          "time": 7.875,
          "velocity": 0.49606299212598426
        }
      ],
      "endOfTrackTicks": 1535
    }
  ]
}